<svg width="19" height="22" viewBox="0 0 19 22" fill="none" xmlns="http://www.w3.org/2000/svg">
<path fill-rule="evenodd" clip-rule="evenodd" d="M6.33499 8.86516C7.00676 9.61377 8.03746 10.1481 9.50115 10.15C10.9647 10.1519 11.9947 9.62007 12.6657 8.87381C13.3503 8.11254 13.7086 7.07397 13.7065 6.00759C13.7045 4.94118 13.3422 3.89984 12.6548 3.13492C11.9808 2.38487 10.9518 1.85158 9.49915 1.85001C8.04648 1.84843 7.01806 2.37932 6.34473 3.12703C5.65796 3.88965 5.29565 4.92944 5.29361 5.99567C5.29157 7.06183 5.64983 8.10164 6.33499 8.86516ZM5.08146 1.98941C6.09481 0.864141 7.59224 0.147933 9.501 0.150006C11.4098 0.152079 12.9066 0.871692 13.9193 1.99866C14.9186 3.11077 15.4038 4.57058 15.4065 6.00434C15.4093 7.43812 14.9296 8.89872 13.9298 10.0105C12.9166 11.1373 11.4159 11.8524 9.49899 11.85C7.58216 11.8476 6.08225 11.1289 5.06973 10.0006C4.07059 8.88713 3.59088 7.42611 3.59361 5.99242C3.59635 4.55881 4.08155 3.09976 5.08146 1.98941ZM4.03111 10.8363C4.39768 11.1295 4.45711 11.6644 4.16384 12.031C2.23283 14.4447 1.63352 16.4403 1.84126 17.8785L1.84127 17.8785C1.87161 18.0887 2.00719 18.3499 2.36883 18.6458C2.73224 18.9432 3.26974 19.2283 3.96745 19.4763C5.3602 19.9714 7.23082 20.2629 9.16461 20.2993C11.0977 20.3358 13.0254 20.1161 14.5325 19.6366C16.0932 19.14 16.9543 18.4494 17.1937 17.7312C17.2405 17.5909 17.2704 17.3286 17.2198 16.924C17.1706 16.5307 17.0519 16.0548 16.8556 15.5209C16.4631 14.4531 15.7829 13.2142 14.8363 12.031C14.5431 11.6644 14.6025 11.1295 14.9691 10.8363C15.3357 10.543 15.8706 10.6024 16.1638 10.969C17.2172 12.2858 17.9915 13.6837 18.4512 14.9343C18.6811 15.5596 18.8379 16.1633 18.9066 16.7131C18.974 17.2516 18.9641 17.7959 18.8065 18.2688C18.2959 19.8006 16.7273 20.7222 15.0479 21.2566C13.3147 21.808 11.1916 22.0378 9.13256 21.999C7.07418 21.9602 5.01119 21.6515 3.39804 21.0781C2.59281 20.7918 1.85927 20.4255 1.29222 19.9615C0.723393 19.496 0.269073 18.8858 0.158715 18.1215L0.999991 18L0.158715 18.1215C-0.145071 16.0183 0.767257 13.5553 2.83638 10.969C3.12965 10.6024 3.66455 10.543 4.03111 10.8363Z" fill="black"/>
</svg>
