<svg width="23" height="23" viewBox="0 0 23 23" fill="none" xmlns="http://www.w3.org/2000/svg">
<path fill-rule="evenodd" clip-rule="evenodd" d="M16.7204 10.8975C16.8336 10.9971 16.9228 11.1208 16.9816 11.2596C17.0803 11.4478 17.137 11.6548 17.1502 11.8669C17.1564 11.9582 17.1592 12.0004 17.1396 12.0199C17.1227 12.0367 17.0891 12.0367 17.0266 12.0367H14.3016H14.2901H14.2889C14.1423 12.0367 14.1423 12.0136 14.1423 11.89C14.1648 11.7272 14.2116 11.5698 14.2801 11.4225C14.3449 11.269 14.4331 11.1285 14.5479 11.0168C14.5665 10.9961 14.5856 10.9758 14.6053 10.9559C14.6265 10.9421 14.6479 10.9287 14.6694 10.9156C14.878 10.7634 15.0852 10.7013 15.3075 10.66C15.3502 10.6505 15.3931 10.6424 15.4364 10.6355C15.5468 10.6182 15.6582 10.6096 15.7695 10.6096C15.7923 10.6097 15.8152 10.61 15.8381 10.6108C16.0033 10.6162 16.1677 10.6409 16.328 10.6846H16.3396C16.1755 10.64 16.0071 10.6153 15.8381 10.6108C15.8369 10.6108 15.8358 10.6107 15.8346 10.6107M16.7204 10.8975C16.6174 10.8068 16.4969 10.7384 16.3666 10.6962L16.7204 10.8975ZM4.75502 0.395508H18.2644C19.4587 0.395508 20.6041 0.869943 21.4486 1.71444C22.2931 2.55894 22.7675 3.70433 22.7675 4.89863V18.408C22.7675 19.6023 22.2931 20.7477 21.4486 21.5922C20.6041 22.4367 19.4587 22.9111 18.2644 22.9111H4.75502C3.56071 22.9111 2.41533 22.4367 1.57083 21.5922C0.726327 20.7477 0.251892 19.6023 0.251892 18.408V4.89863C0.251892 3.70433 0.726327 2.55894 1.57083 1.71444C2.41533 0.869943 3.56071 0.395508 4.75502 0.395508ZM13.9529 7.44232C13.8513 7.44232 13.8513 7.47696 13.8513 7.56587V8.29907C13.8513 8.37739 13.8513 8.41665 13.871 8.43633C13.8907 8.4561 13.9302 8.4561 14.0095 8.4561H17.5439C17.6039 8.4561 17.6005 8.38913 17.6005 8.38913V7.44232H13.9529ZM5.85925 16.324C7.79717 16.3757 9.41244 16.4189 10.474 15.8412H10.4624C10.8886 15.603 11.2375 15.2476 11.468 14.8172C11.6985 14.3868 11.8008 13.8994 11.7629 13.4126C11.725 12.9259 11.5484 12.4601 11.2541 12.0706C10.9598 11.6811 10.5601 11.384 10.1022 11.2146C10.5989 10.9704 10.9883 10.5517 11.196 10.0387C11.4037 9.52557 11.415 8.95396 11.228 8.43301C10.8677 7.24026 9.52833 6.95852 8.40255 6.95852H4.00103V16.2915C4.64612 16.2915 5.26772 16.3081 5.85925 16.324ZM14.3582 13.1844H18.8498C18.8787 13.1882 18.9082 13.1852 18.9358 13.1759C18.9635 13.1665 18.9886 13.1508 19.0092 13.1302C19.0299 13.1095 19.0455 13.0844 19.0549 13.0568C19.0643 13.0292 19.0672 12.9997 19.0634 12.9708C19.0634 10.4941 17.4423 8.73783 14.887 9.28976C14.0055 9.51407 13.2463 10.0737 12.7711 10.8494C12.296 11.6252 12.1425 12.5558 12.3434 13.443C12.3767 13.7962 12.4758 14.14 12.6355 14.4568C12.8939 14.9322 13.2583 15.3416 13.7005 15.6534C14.1427 15.9652 14.6508 16.1709 15.1853 16.2547C15.7198 16.3384 16.2665 16.2979 16.7828 16.1363C17.2992 15.9747 17.7714 15.6963 18.1628 15.3228C18.4563 14.9637 18.6849 14.5562 18.8383 14.1185C18.8613 14.04 18.7713 14.04 18.7713 14.04H17.3072C17.2737 14.04 17.2171 14.1081 17.2171 14.1081C17.0243 14.4343 16.728 14.6869 16.3754 14.8255C16.0227 14.9642 15.6338 14.9812 15.2704 14.8736C14.5822 14.772 14.2785 14.0735 14.1435 13.4095C14.1215 13.2514 14.2347 13.1844 14.3582 13.1844ZM5.85644 8.48034V10.3336C5.85644 10.4536 5.90032 10.4975 6.02156 10.4975H7.00878C7.75468 10.4975 8.78809 10.4894 9.01902 10.0703C9.24995 9.65115 9.25457 9.47911 9.24533 9.35903L9.24502 9.35442C9.23666 9.22897 9.21029 8.83351 8.71997 8.54616C8.31028 8.30455 7.55702 8.31253 6.61435 8.32251C6.41725 8.3246 6.21187 8.32677 5.99962 8.32677C5.85644 8.32677 5.85644 8.37065 5.85644 8.48034ZM9.49693 12.7708C9.45368 12.5906 9.37221 12.4217 9.25803 12.2757C8.89162 11.8435 8.42493 11.8487 7.72419 11.8566C7.62557 11.8577 7.52232 11.8588 7.41406 11.8588H5.99962C5.85644 11.8588 5.85644 11.9027 5.85644 12.0124V14.2062C5.85644 14.3483 5.90032 14.3483 6.01001 14.3483H8.13803C8.39427 14.346 8.64761 14.2938 8.88393 14.1947C9.0446 14.1022 9.18353 13.9763 9.29133 13.8255C9.39913 13.6747 9.47327 13.5025 9.50874 13.3205C9.54421 13.1386 9.54018 12.9511 9.49693 12.7708Z" fill="white"/>
</svg>
