<svg width="23" height="23" viewBox="0 0 23 23" fill="none" xmlns="http://www.w3.org/2000/svg">
<path d="M7.02331 0.395508H16.4799C20.0824 0.395508 23.0094 3.32254 23.0094 6.92504V16.3816C23.0094 18.1133 22.3215 19.7742 21.0969 20.9987C19.8724 22.2232 18.2116 22.9111 16.4799 22.9111H7.02331C3.42081 22.9111 0.493774 19.9841 0.493774 16.3816V6.92504C0.493774 5.1933 1.18171 3.53249 2.40623 2.30796C3.63075 1.08344 5.29157 0.395508 7.02331 0.395508ZM6.79815 2.64707C5.72328 2.64707 4.69243 3.07406 3.93238 3.83411C3.17233 4.59416 2.74534 5.62501 2.74534 6.69988V16.6068C2.74534 18.8471 4.55784 20.6596 6.79815 20.6596H16.705C17.7799 20.6596 18.8107 20.2326 19.5708 19.4725C20.3308 18.7125 20.7578 17.6816 20.7578 16.6068V6.69988C20.7578 4.45958 18.9453 2.64707 16.705 2.64707H6.79815ZM17.6619 4.33574C18.0352 4.33574 18.3931 4.484 18.657 4.74791C18.9209 5.01182 19.0692 5.36975 19.0692 5.74297C19.0692 6.11619 18.9209 6.47412 18.657 6.73803C18.3931 7.00193 18.0352 7.1502 17.6619 7.1502C17.2887 7.1502 16.9308 7.00193 16.6669 6.73803C16.403 6.47412 16.2547 6.11619 16.2547 5.74297C16.2547 5.36975 16.403 5.01182 16.6669 4.74791C16.9308 4.484 17.2887 4.33574 17.6619 4.33574ZM11.7516 6.02441C13.2445 6.02441 14.6762 6.61746 15.7318 7.67308C16.7875 8.72871 17.3805 10.1604 17.3805 11.6533C17.3805 13.1462 16.7875 14.5779 15.7318 15.6336C14.6762 16.6892 13.2445 17.2822 11.7516 17.2822C10.2587 17.2822 8.82697 16.6892 7.77135 15.6336C6.71572 14.5779 6.12268 13.1462 6.12268 11.6533C6.12268 10.1604 6.71572 8.72871 7.77135 7.67308C8.82697 6.61746 10.2587 6.02441 11.7516 6.02441ZM11.7516 8.27598C10.8559 8.27598 9.99682 8.6318 9.36344 9.26518C8.73007 9.89855 8.37424 10.7576 8.37424 11.6533C8.37424 12.549 8.73007 13.4081 9.36344 14.0415C9.99682 14.6748 10.8559 15.0307 11.7516 15.0307C12.6473 15.0307 13.5064 14.6748 14.1397 14.0415C14.7731 13.4081 15.1289 12.549 15.1289 11.6533C15.1289 10.7576 14.7731 9.89855 14.1397 9.26518C13.5064 8.6318 12.6473 8.27598 11.7516 8.27598Z" fill="white"/>
</svg>
