<svg width="19" height="10" viewBox="0 0 19 10" fill="none" xmlns="http://www.w3.org/2000/svg">
<path d="M2.47682 0.580137C2.39088 0.502826 2.2898 0.442386 2.17933 0.402267C2.06886 0.362149 1.95118 0.343139 1.83299 0.346322C1.71481 0.349505 1.59844 0.374819 1.49053 0.420818C1.38262 0.466818 1.28529 0.532601 1.20408 0.614414C1.12288 0.696227 1.05939 0.792468 1.01725 0.897639C0.975114 1.00281 0.955147 1.11485 0.95849 1.22737C0.961833 1.33989 0.988422 1.45068 1.03674 1.55341C1.08505 1.65615 1.15415 1.74882 1.24008 1.82613L9.34095 9.11012C9.50807 9.26055 9.72934 9.34436 9.95932 9.34436C10.1893 9.34436 10.4106 9.26055 10.5777 9.11012L18.6795 1.82613C18.7673 1.74933 18.8382 1.65668 18.8881 1.55357C18.938 1.45045 18.9658 1.33893 18.9701 1.22548C18.9743 1.11202 18.9548 0.998898 18.9127 0.892674C18.8707 0.786451 18.8068 0.689246 18.725 0.606705C18.6431 0.524164 18.5448 0.457932 18.4358 0.411858C18.3269 0.365783 18.2093 0.340785 18.0901 0.338313C17.9709 0.335841 17.8524 0.355945 17.7414 0.397459C17.6304 0.438973 17.5292 0.501068 17.4436 0.580137L9.95932 7.30883L2.47682 0.580137Z" fill="black"/>
</svg>
