<svg width="26" height="22" viewBox="0 0 26 22" fill="none" xmlns="http://www.w3.org/2000/svg">
<path fill-rule="evenodd" clip-rule="evenodd" d="M0.650024 1C0.650024 0.53056 1.03058 0.150002 1.50002 0.150002H4.50755C5.0516 0.154817 5.59998 0.221193 6.04509 0.537249C6.51298 0.869471 6.70121 1.35761 6.81769 1.7678C6.82015 1.77645 6.82247 1.78513 6.82465 1.79385L7.28868 3.65H25C25.2597 3.65 25.5051 3.7687 25.6664 3.97226C25.8276 4.17582 25.8869 4.44191 25.8274 4.69468L23.8274 13.1947C23.7371 13.5786 23.3945 13.85 23 13.85H9.83869L10.2981 15.6877C10.4116 15.8904 10.4913 15.9964 10.6136 16.0644C10.6816 16.1023 10.8 16.1474 11.0107 16.1501L11.0262 16.1504L21.014 16.458C21.8688 16.4614 22.5739 16.7789 23.0546 17.3209C23.524 17.8503 23.7234 18.5303 23.7079 19.1744C23.6771 20.4557 22.7526 21.85 21 21.85C20.1551 21.85 19.4563 21.5252 18.9735 20.996C18.5035 20.4808 18.2747 19.8134 18.2653 19.1662C18.2601 18.803 18.3239 18.4303 18.4647 18.0803L12.6398 17.9009C12.8343 18.305 12.9184 18.7475 12.9081 19.1744C12.8774 20.4557 11.9528 21.85 10.2003 21.85C9.35537 21.85 8.65653 21.5252 8.17371 20.996C7.7037 20.4808 7.4749 19.8134 7.46558 19.1662C7.45625 18.5187 7.66642 17.8407 8.14079 17.3153C8.36218 17.07 8.62977 16.8707 8.93658 16.7262C8.86313 16.6111 8.8082 16.5086 8.76716 16.4319C8.76175 16.4218 8.75659 16.4122 8.75165 16.403C8.71815 16.3408 8.69254 16.2747 8.6754 16.2062L5.17886 2.22C5.11703 2.00553 5.07264 1.93797 5.05952 1.92236C5.05994 1.92268 5.06039 1.92302 5.06088 1.92337C5.06136 1.92371 4.96363 1.85449 4.49611 1.85H1.50002C1.03058 1.85 0.650024 1.46944 0.650024 1ZM9.41368 12.15H22.3268L23.9268 5.35H7.71368L9.41368 12.15ZM9.42957 19.8502C9.57832 20.0133 9.81523 20.15 10.2003 20.15C10.8365 20.15 11.1951 19.6983 11.2086 19.1336C11.2153 18.8547 11.1272 18.6116 10.9828 18.4488C10.8522 18.3015 10.6222 18.1579 10.2003 18.1579C9.7779 18.1579 9.54021 18.302 9.40267 18.4544C9.25211 18.6212 9.16143 18.8663 9.1654 19.1417C9.16937 19.4176 9.26799 19.6731 9.42957 19.8502ZM20.2293 19.8502C20.3781 20.0133 20.615 20.15 21 20.15C21.6363 20.15 21.9948 19.6983 22.0084 19.1336C22.0151 18.8547 21.9269 18.6116 21.7826 18.4488C21.652 18.3015 21.422 18.1579 21 18.1579C20.5777 18.1579 20.34 18.302 20.2024 18.4544C20.0519 18.6212 19.9612 18.8663 19.9652 19.1417C19.9691 19.4176 20.0678 19.6731 20.2293 19.8502Z" fill="black"/>
</svg>
