<svg width="23" height="22" viewBox="0 0 23 22" fill="none" xmlns="http://www.w3.org/2000/svg">
<path fill-rule="evenodd" clip-rule="evenodd" d="M9.95524 2.02498C5.69489 2.02498 2.24119 5.47868 2.24119 9.73903C2.24119 13.9994 5.69489 17.4531 9.95524 17.4531C12.058 17.4531 13.9627 16.6129 15.355 15.248C16.7843 13.8469 17.6693 11.8971 17.6693 9.73903C17.6693 5.47868 14.2156 2.02498 9.95524 2.02498ZM0.439941 9.73903C0.439941 4.48388 4.70009 0.223732 9.95524 0.223732C15.2104 0.223732 19.4705 4.48388 19.4705 9.73903C19.4705 12.0693 18.632 14.205 17.2416 15.8589L21.7835 20.2937C22.1394 20.6412 22.1462 21.2114 21.7987 21.5673C21.4512 21.9232 20.881 21.93 20.5251 21.5825L15.9576 17.1226C14.3206 18.4548 12.2306 19.2543 9.95524 19.2543C4.70009 19.2543 0.439941 14.9942 0.439941 9.73903ZM7.94399 4.67759C8.2199 5.09146 8.10807 5.65063 7.69421 5.92653C6.54167 6.69489 5.82723 7.767 5.84363 9.21981C5.84925 9.71718 5.45061 10.1249 4.95324 10.1305C4.45587 10.1362 4.04812 9.73752 4.0425 9.24015C4.01784 7.05626 5.14571 5.4607 6.69505 4.4278C7.10891 4.1519 7.66809 4.26373 7.94399 4.67759Z" fill="black"/>
</svg>
