<svg width="26" height="23" viewBox="0 0 26 23" fill="none" xmlns="http://www.w3.org/2000/svg">
<path d="M23.3725 0.397813C23.0611 0.420336 22.7554 0.492961 22.4674 0.612856H22.4635C22.187 0.721824 20.8725 1.27148 18.874 2.10465L11.7126 5.10272C6.57379 7.25314 1.52234 9.37078 1.52234 9.37078L1.58249 9.34764C1.58249 9.34764 1.23421 9.46143 0.870414 9.70926C0.645663 9.85142 0.452264 10.0374 0.30192 10.256C0.123416 10.5164 -0.0201624 10.9147 0.0331946 11.3264C0.120506 12.0227 0.574525 12.4402 0.900488 12.6707C1.23033 12.904 1.54465 13.013 1.54465 13.013H1.55241L6.28954 14.5993C6.502 15.2772 7.73309 19.3004 8.02898 20.2271C8.2036 20.7806 8.37337 21.1268 8.58583 21.391C8.68867 21.526 8.80896 21.6388 8.95351 21.7295C9.02866 21.7729 9.10878 21.8072 9.19216 21.8317L9.14365 21.8201C9.15821 21.824 9.16985 21.8355 9.18052 21.8394C9.21933 21.85 9.24552 21.8539 9.295 21.8616C10.0449 22.0872 10.6474 21.6244 10.6474 21.6244L10.6813 21.5974L13.4782 19.066L18.1658 22.6408L18.2725 22.6861C19.2495 23.1123 20.239 22.8751 20.7619 22.4566C21.2887 22.0352 21.4934 21.4961 21.4934 21.4961L21.5273 21.4093L25.1498 2.9629C25.2526 2.50774 25.2788 2.08151 25.1653 1.66782C25.0482 1.24914 24.778 0.889043 24.4076 0.658179C24.0966 0.470248 23.736 0.379538 23.3725 0.397813ZM23.2745 2.37466C23.2706 2.43542 23.2823 2.42866 23.2551 2.54535V2.55595L19.6666 20.8105C19.6511 20.8365 19.6249 20.8934 19.5531 20.9503C19.4774 21.0101 19.4173 21.0477 19.102 20.9233L13.3686 16.554L9.9052 19.6919L10.6328 15.0728L20.0003 6.39394C20.3865 6.03714 20.2574 5.96192 20.2574 5.96192C20.2846 5.52412 19.6744 5.83367 19.6744 5.83367L7.86212 13.1075L7.85824 13.0882L2.19658 11.1933V11.1895L2.18203 11.1866C2.19195 11.1833 2.20167 11.1795 2.21113 11.175L2.24217 11.1596L2.27225 11.149C2.27225 11.149 7.32758 9.03134 12.4663 6.88092C15.0391 5.80377 17.6313 4.71892 19.6249 3.88189C20.8072 3.3872 21.9908 2.8954 23.1756 2.40649C23.2551 2.37563 23.2173 2.37466 23.2745 2.37466Z" fill="white"/>
</svg>
